<mxfile host="app.diagrams.net" modified="2023-11-28T12:09:55.997Z" agent="Mozilla/5.0 (Windows NT 10.0; Win64; x64) AppleWebKit/537.36 (KHTML, like Gecko) Chrome/119.0.0.0 Safari/537.36" etag="lyFOyE8y69rNclr_kQkT" version="22.1.4" type="github">
  <diagram id="C5RBs43oDa-KdzZeNtuy" name="Page-1">
    <mxGraphModel dx="548" dy="525" grid="1" gridSize="10" guides="1" tooltips="1" connect="1" arrows="1" fold="1" page="1" pageScale="1" pageWidth="827" pageHeight="1169" math="0" shadow="0">
      <root>
        <mxCell id="WIyWlLk6GJQsqaUBKTNV-0" />
        <mxCell id="WIyWlLk6GJQsqaUBKTNV-1" parent="WIyWlLk6GJQsqaUBKTNV-0" />
        <mxCell id="53mp7PGsEGhvLmXxddQn-4" value="Planning Poker" style="swimlane;fontStyle=2;align=center;verticalAlign=top;childLayout=stackLayout;horizontal=1;startSize=26;horizontalStack=0;resizeParent=1;resizeLast=0;collapsible=1;marginBottom=0;rounded=0;shadow=0;strokeWidth=1;flipH=1;" vertex="1" parent="WIyWlLk6GJQsqaUBKTNV-1">
          <mxGeometry x="385" y="120" width="160" height="226" as="geometry">
            <mxRectangle x="220" y="120" width="160" height="26" as="alternateBounds" />
          </mxGeometry>
        </mxCell>
        <mxCell id="53mp7PGsEGhvLmXxddQn-5" value="- monJoueurs : Tableau de Joueurs" style="text;align=left;verticalAlign=top;spacingLeft=4;spacingRight=4;overflow=hidden;rotatable=0;points=[[0,0.5],[1,0.5]];portConstraint=eastwest;rounded=0;shadow=0;html=0;" vertex="1" parent="53mp7PGsEGhvLmXxddQn-4">
          <mxGeometry y="26" width="160" height="26" as="geometry" />
        </mxCell>
        <mxCell id="53mp7PGsEGhvLmXxddQn-6" value="- monRegle : ReglesPlanningPoker" style="text;align=left;verticalAlign=top;spacingLeft=4;spacingRight=4;overflow=hidden;rotatable=0;points=[[0,0.5],[1,0.5]];portConstraint=eastwest;" vertex="1" parent="53mp7PGsEGhvLmXxddQn-4">
          <mxGeometry y="52" width="160" height="26" as="geometry" />
        </mxCell>
        <mxCell id="53mp7PGsEGhvLmXxddQn-7" value="- monBacklog : Backlog" style="text;align=left;verticalAlign=top;spacingLeft=4;spacingRight=4;overflow=hidden;rotatable=0;points=[[0,0.5],[1,0.5]];portConstraint=eastwest;rounded=0;shadow=0;html=0;" vertex="1" parent="53mp7PGsEGhvLmXxddQn-4">
          <mxGeometry y="78" width="160" height="26" as="geometry" />
        </mxCell>
        <mxCell id="53mp7PGsEGhvLmXxddQn-8" value="" style="line;html=1;strokeWidth=1;align=left;verticalAlign=middle;spacingTop=-1;spacingLeft=3;spacingRight=3;rotatable=0;labelPosition=right;points=[];portConstraint=eastwest;" vertex="1" parent="53mp7PGsEGhvLmXxddQn-4">
          <mxGeometry y="104" width="160" height="8" as="geometry" />
        </mxCell>
        <mxCell id="53mp7PGsEGhvLmXxddQn-9" value="+ initialiserPartier() : void" style="text;align=left;verticalAlign=top;spacingLeft=4;spacingRight=4;overflow=hidden;rotatable=0;points=[[0,0.5],[1,0.5]];portConstraint=eastwest;" vertex="1" parent="53mp7PGsEGhvLmXxddQn-4">
          <mxGeometry y="112" width="160" height="26" as="geometry" />
        </mxCell>
        <mxCell id="53mp7PGsEGhvLmXxddQn-10" value="+ validerBacklog() : void" style="text;align=left;verticalAlign=top;spacingLeft=4;spacingRight=4;overflow=hidden;rotatable=0;points=[[0,0.5],[1,0.5]];portConstraint=eastwest;" vertex="1" parent="53mp7PGsEGhvLmXxddQn-4">
          <mxGeometry y="138" width="160" height="26" as="geometry" />
        </mxCell>
        <mxCell id="53mp7PGsEGhvLmXxddQn-11" value="+ enregistrerResultats() : void" style="text;align=left;verticalAlign=top;spacingLeft=4;spacingRight=4;overflow=hidden;rotatable=0;points=[[0,0.5],[1,0.5]];portConstraint=eastwest;" vertex="1" parent="53mp7PGsEGhvLmXxddQn-4">
          <mxGeometry y="164" width="160" height="26" as="geometry" />
        </mxCell>
        <mxCell id="53mp7PGsEGhvLmXxddQn-12" value="+ ChargerPartie() : void" style="text;align=left;verticalAlign=top;spacingLeft=4;spacingRight=4;overflow=hidden;rotatable=0;points=[[0,0.5],[1,0.5]];portConstraint=eastwest;" vertex="1" parent="53mp7PGsEGhvLmXxddQn-4">
          <mxGeometry y="190" width="160" height="26" as="geometry" />
        </mxCell>
        <mxCell id="53mp7PGsEGhvLmXxddQn-13" value="Joueurs" style="swimlane;fontStyle=0;align=center;verticalAlign=top;childLayout=stackLayout;horizontal=1;startSize=20;horizontalStack=0;resizeParent=1;resizeLast=0;collapsible=1;marginBottom=0;rounded=0;shadow=0;strokeWidth=1;" vertex="1" parent="WIyWlLk6GJQsqaUBKTNV-1">
          <mxGeometry x="588" y="527" width="202" height="140" as="geometry">
            <mxRectangle x="550" y="140" width="160" height="26" as="alternateBounds" />
          </mxGeometry>
        </mxCell>
        <mxCell id="53mp7PGsEGhvLmXxddQn-14" value="- monPseudo : String" style="text;align=left;verticalAlign=top;spacingLeft=4;spacingRight=4;overflow=hidden;rotatable=0;points=[[0,0.5],[1,0.5]];portConstraint=eastwest;" vertex="1" parent="53mp7PGsEGhvLmXxddQn-13">
          <mxGeometry y="20" width="202" height="26" as="geometry" />
        </mxCell>
        <mxCell id="53mp7PGsEGhvLmXxddQn-15" value="- monCartes : Tableau de Carte" style="text;align=left;verticalAlign=top;spacingLeft=4;spacingRight=4;overflow=hidden;rotatable=0;points=[[0,0.5],[1,0.5]];portConstraint=eastwest;rounded=0;shadow=0;html=0;" vertex="1" parent="53mp7PGsEGhvLmXxddQn-13">
          <mxGeometry y="46" width="202" height="26" as="geometry" />
        </mxCell>
        <mxCell id="53mp7PGsEGhvLmXxddQn-16" value="- monVoteCarteCourant : Carte" style="text;align=left;verticalAlign=top;spacingLeft=4;spacingRight=4;overflow=hidden;rotatable=0;points=[[0,0.5],[1,0.5]];portConstraint=eastwest;rounded=0;shadow=0;html=0;" vertex="1" parent="53mp7PGsEGhvLmXxddQn-13">
          <mxGeometry y="72" width="202" height="26" as="geometry" />
        </mxCell>
        <mxCell id="53mp7PGsEGhvLmXxddQn-17" value="" style="line;html=1;strokeWidth=1;align=left;verticalAlign=middle;spacingTop=-1;spacingLeft=3;spacingRight=3;rotatable=0;labelPosition=right;points=[];portConstraint=eastwest;" vertex="1" parent="53mp7PGsEGhvLmXxddQn-13">
          <mxGeometry y="98" width="202" height="8" as="geometry" />
        </mxCell>
        <mxCell id="53mp7PGsEGhvLmXxddQn-18" value="+ voter(carte : Carte) : void" style="text;align=left;verticalAlign=top;spacingLeft=4;spacingRight=4;overflow=hidden;rotatable=0;points=[[0,0.5],[1,0.5]];portConstraint=eastwest;" vertex="1" parent="53mp7PGsEGhvLmXxddQn-13">
          <mxGeometry y="106" width="202" height="26" as="geometry" />
        </mxCell>
        <mxCell id="53mp7PGsEGhvLmXxddQn-19" value="" style="endArrow=open;shadow=0;strokeWidth=1;rounded=0;endFill=1;edgeStyle=elbowEdgeStyle;elbow=vertical;" edge="1" parent="WIyWlLk6GJQsqaUBKTNV-1" source="53mp7PGsEGhvLmXxddQn-4" target="53mp7PGsEGhvLmXxddQn-13">
          <mxGeometry x="0.5" y="41" relative="1" as="geometry">
            <mxPoint x="558" y="551" as="sourcePoint" />
            <mxPoint x="398" y="551" as="targetPoint" />
            <mxPoint x="-40" y="32" as="offset" />
          </mxGeometry>
        </mxCell>
        <mxCell id="53mp7PGsEGhvLmXxddQn-20" value="" style="endArrow=open;shadow=0;strokeWidth=1;rounded=0;endFill=1;edgeStyle=elbowEdgeStyle;elbow=vertical;exitX=0.5;exitY=1;exitDx=0;exitDy=0;entryX=0.5;entryY=0;entryDx=0;entryDy=0;" edge="1" parent="WIyWlLk6GJQsqaUBKTNV-1" source="53mp7PGsEGhvLmXxddQn-13" target="53mp7PGsEGhvLmXxddQn-22">
          <mxGeometry x="0.5" y="41" relative="1" as="geometry">
            <mxPoint x="640" y="712" as="sourcePoint" />
            <mxPoint x="668" y="752" as="targetPoint" />
            <mxPoint x="-40" y="32" as="offset" />
          </mxGeometry>
        </mxCell>
        <mxCell id="53mp7PGsEGhvLmXxddQn-21" value="lives at" style="text;html=1;resizable=0;points=[];;align=center;verticalAlign=middle;labelBackgroundColor=none;rounded=0;shadow=0;strokeWidth=1;fontSize=12;" vertex="1" connectable="0" parent="53mp7PGsEGhvLmXxddQn-20">
          <mxGeometry x="0.5" y="49" relative="1" as="geometry">
            <mxPoint x="-38" y="40" as="offset" />
          </mxGeometry>
        </mxCell>
        <mxCell id="53mp7PGsEGhvLmXxddQn-22" value="Carte" style="swimlane;fontStyle=0;align=center;verticalAlign=top;childLayout=stackLayout;horizontal=1;startSize=20;horizontalStack=0;resizeParent=1;resizeLast=0;collapsible=1;marginBottom=0;rounded=0;shadow=0;strokeWidth=1;" vertex="1" parent="WIyWlLk6GJQsqaUBKTNV-1">
          <mxGeometry x="588" y="810" width="190" height="90" as="geometry">
            <mxRectangle x="550" y="140" width="160" height="26" as="alternateBounds" />
          </mxGeometry>
        </mxCell>
        <mxCell id="53mp7PGsEGhvLmXxddQn-23" value="- monEnsembleCarte : String" style="text;align=left;verticalAlign=top;spacingLeft=4;spacingRight=4;overflow=hidden;rotatable=0;points=[[0,0.5],[1,0.5]];portConstraint=eastwest;" vertex="1" parent="53mp7PGsEGhvLmXxddQn-22">
          <mxGeometry y="20" width="190" height="16" as="geometry" />
        </mxCell>
        <mxCell id="53mp7PGsEGhvLmXxddQn-24" value="" style="line;html=1;strokeWidth=1;align=left;verticalAlign=middle;spacingTop=-1;spacingLeft=3;spacingRight=3;rotatable=0;labelPosition=right;points=[];portConstraint=eastwest;" vertex="1" parent="53mp7PGsEGhvLmXxddQn-22">
          <mxGeometry y="36" width="190" height="8" as="geometry" />
        </mxCell>
        <mxCell id="53mp7PGsEGhvLmXxddQn-25" value="+ _" style="text;align=left;verticalAlign=top;spacingLeft=4;spacingRight=4;overflow=hidden;rotatable=0;points=[[0,0.5],[1,0.5]];portConstraint=eastwest;" vertex="1" parent="53mp7PGsEGhvLmXxddQn-22">
          <mxGeometry y="44" width="190" height="26" as="geometry" />
        </mxCell>
        <mxCell id="53mp7PGsEGhvLmXxddQn-26" value="ReglesPlanningPoker" style="swimlane;fontStyle=0;align=center;verticalAlign=top;childLayout=stackLayout;horizontal=1;startSize=20;horizontalStack=0;resizeParent=1;resizeLast=0;collapsible=1;marginBottom=0;rounded=0;shadow=0;strokeWidth=1;" vertex="1" parent="WIyWlLk6GJQsqaUBKTNV-1">
          <mxGeometry x="370" y="527" width="190" height="90" as="geometry">
            <mxRectangle x="550" y="140" width="160" height="26" as="alternateBounds" />
          </mxGeometry>
        </mxCell>
        <mxCell id="53mp7PGsEGhvLmXxddQn-27" value="- monModeDeJeu : ModeDeJeu" style="text;align=left;verticalAlign=top;spacingLeft=4;spacingRight=4;overflow=hidden;rotatable=0;points=[[0,0.5],[1,0.5]];portConstraint=eastwest;" vertex="1" parent="53mp7PGsEGhvLmXxddQn-26">
          <mxGeometry y="20" width="190" height="26" as="geometry" />
        </mxCell>
        <mxCell id="53mp7PGsEGhvLmXxddQn-28" value="" style="line;html=1;strokeWidth=1;align=left;verticalAlign=middle;spacingTop=-1;spacingLeft=3;spacingRight=3;rotatable=0;labelPosition=right;points=[];portConstraint=eastwest;" vertex="1" parent="53mp7PGsEGhvLmXxddQn-26">
          <mxGeometry y="46" width="190" height="8" as="geometry" />
        </mxCell>
        <mxCell id="53mp7PGsEGhvLmXxddQn-29" value="+ appliquerRegles(): void" style="text;align=left;verticalAlign=top;spacingLeft=4;spacingRight=4;overflow=hidden;rotatable=0;points=[[0,0.5],[1,0.5]];portConstraint=eastwest;" vertex="1" parent="53mp7PGsEGhvLmXxddQn-26">
          <mxGeometry y="54" width="190" height="26" as="geometry" />
        </mxCell>
        <mxCell id="53mp7PGsEGhvLmXxddQn-30" value="Backlog" style="swimlane;fontStyle=0;align=center;verticalAlign=top;childLayout=stackLayout;horizontal=1;startSize=20;horizontalStack=0;resizeParent=1;resizeLast=0;collapsible=1;marginBottom=0;rounded=0;shadow=0;strokeWidth=1;" vertex="1" parent="WIyWlLk6GJQsqaUBKTNV-1">
          <mxGeometry x="50" y="527" width="300" height="90" as="geometry">
            <mxRectangle x="550" y="140" width="160" height="26" as="alternateBounds" />
          </mxGeometry>
        </mxCell>
        <mxCell id="53mp7PGsEGhvLmXxddQn-31" value="- monFonctionnalites : Tableau de Fonctionnalite" style="text;align=left;verticalAlign=top;spacingLeft=4;spacingRight=4;overflow=hidden;rotatable=0;points=[[0,0.5],[1,0.5]];portConstraint=eastwest;" vertex="1" parent="53mp7PGsEGhvLmXxddQn-30">
          <mxGeometry y="20" width="300" height="26" as="geometry" />
        </mxCell>
        <mxCell id="53mp7PGsEGhvLmXxddQn-32" value="" style="line;html=1;strokeWidth=1;align=left;verticalAlign=middle;spacingTop=-1;spacingLeft=3;spacingRight=3;rotatable=0;labelPosition=right;points=[];portConstraint=eastwest;" vertex="1" parent="53mp7PGsEGhvLmXxddQn-30">
          <mxGeometry y="46" width="300" height="8" as="geometry" />
        </mxCell>
        <mxCell id="53mp7PGsEGhvLmXxddQn-33" value="+ ajouterFonctionnalite (fonct : Fonctionnalite): void" style="text;align=left;verticalAlign=top;spacingLeft=4;spacingRight=4;overflow=hidden;rotatable=0;points=[[0,0.5],[1,0.5]];portConstraint=eastwest;" vertex="1" parent="53mp7PGsEGhvLmXxddQn-30">
          <mxGeometry y="54" width="300" height="26" as="geometry" />
        </mxCell>
        <mxCell id="53mp7PGsEGhvLmXxddQn-34" value="Fonctionnalite" style="swimlane;fontStyle=0;align=center;verticalAlign=top;childLayout=stackLayout;horizontal=1;startSize=20;horizontalStack=0;resizeParent=1;resizeLast=0;collapsible=1;marginBottom=0;rounded=0;shadow=0;strokeWidth=1;" vertex="1" parent="WIyWlLk6GJQsqaUBKTNV-1">
          <mxGeometry x="60" y="710" width="290" height="140" as="geometry">
            <mxRectangle x="550" y="140" width="160" height="26" as="alternateBounds" />
          </mxGeometry>
        </mxCell>
        <mxCell id="53mp7PGsEGhvLmXxddQn-35" value="- monDescription : String" style="text;align=left;verticalAlign=top;spacingLeft=4;spacingRight=4;overflow=hidden;rotatable=0;points=[[0,0.5],[1,0.5]];portConstraint=eastwest;" vertex="1" parent="53mp7PGsEGhvLmXxddQn-34">
          <mxGeometry y="20" width="290" height="26" as="geometry" />
        </mxCell>
        <mxCell id="53mp7PGsEGhvLmXxddQn-36" value="- monDifficulte : int" style="text;align=left;verticalAlign=top;spacingLeft=4;spacingRight=4;overflow=hidden;rotatable=0;points=[[0,0.5],[1,0.5]];portConstraint=eastwest;rounded=0;shadow=0;html=0;" vertex="1" parent="53mp7PGsEGhvLmXxddQn-34">
          <mxGeometry y="46" width="290" height="26" as="geometry" />
        </mxCell>
        <mxCell id="53mp7PGsEGhvLmXxddQn-37" value="- monValidee : boolean" style="text;align=left;verticalAlign=top;spacingLeft=4;spacingRight=4;overflow=hidden;rotatable=0;points=[[0,0.5],[1,0.5]];portConstraint=eastwest;rounded=0;shadow=0;html=0;" vertex="1" parent="53mp7PGsEGhvLmXxddQn-34">
          <mxGeometry y="72" width="290" height="26" as="geometry" />
        </mxCell>
        <mxCell id="53mp7PGsEGhvLmXxddQn-38" value="" style="line;html=1;strokeWidth=1;align=left;verticalAlign=middle;spacingTop=-1;spacingLeft=3;spacingRight=3;rotatable=0;labelPosition=right;points=[];portConstraint=eastwest;" vertex="1" parent="53mp7PGsEGhvLmXxddQn-34">
          <mxGeometry y="98" width="290" height="8" as="geometry" />
        </mxCell>
        <mxCell id="53mp7PGsEGhvLmXxddQn-39" value="+ _" style="text;align=left;verticalAlign=top;spacingLeft=4;spacingRight=4;overflow=hidden;rotatable=0;points=[[0,0.5],[1,0.5]];portConstraint=eastwest;" vertex="1" parent="53mp7PGsEGhvLmXxddQn-34">
          <mxGeometry y="106" width="290" height="26" as="geometry" />
        </mxCell>
        <mxCell id="53mp7PGsEGhvLmXxddQn-40" value="" style="endArrow=open;shadow=0;strokeWidth=1;rounded=0;endFill=1;edgeStyle=elbowEdgeStyle;elbow=vertical;entryX=0.199;entryY=0.017;entryDx=0;entryDy=0;entryPerimeter=0;exitX=0.25;exitY=1;exitDx=0;exitDy=0;" edge="1" parent="WIyWlLk6GJQsqaUBKTNV-1" source="53mp7PGsEGhvLmXxddQn-4" target="53mp7PGsEGhvLmXxddQn-26">
          <mxGeometry x="0.5" y="41" relative="1" as="geometry">
            <mxPoint x="480" y="360" as="sourcePoint" />
            <mxPoint x="414" y="471" as="targetPoint" />
            <mxPoint x="-40" y="32" as="offset" />
            <Array as="points">
              <mxPoint x="430" y="460" />
            </Array>
          </mxGeometry>
        </mxCell>
        <mxCell id="53mp7PGsEGhvLmXxddQn-41" value="" style="endArrow=open;shadow=0;strokeWidth=1;rounded=0;endFill=1;edgeStyle=elbowEdgeStyle;elbow=vertical;exitX=0.75;exitY=1;exitDx=0;exitDy=0;entryX=0.75;entryY=0;entryDx=0;entryDy=0;" edge="1" parent="WIyWlLk6GJQsqaUBKTNV-1" source="53mp7PGsEGhvLmXxddQn-30" target="53mp7PGsEGhvLmXxddQn-34">
          <mxGeometry x="0.5" y="41" relative="1" as="geometry">
            <mxPoint x="230" y="617" as="sourcePoint" />
            <mxPoint x="230" y="712" as="targetPoint" />
            <mxPoint x="-40" y="32" as="offset" />
          </mxGeometry>
        </mxCell>
        <mxCell id="53mp7PGsEGhvLmXxddQn-42" value="" style="endArrow=open;shadow=0;strokeWidth=1;rounded=0;endFill=1;edgeStyle=elbowEdgeStyle;elbow=vertical;entryX=0.5;entryY=0;entryDx=0;entryDy=0;exitX=0;exitY=1;exitDx=0;exitDy=0;" edge="1" parent="WIyWlLk6GJQsqaUBKTNV-1" source="53mp7PGsEGhvLmXxddQn-4" target="53mp7PGsEGhvLmXxddQn-30">
          <mxGeometry x="0.5" y="41" relative="1" as="geometry">
            <mxPoint x="410" y="340" as="sourcePoint" />
            <mxPoint x="220" y="512" as="targetPoint" />
            <mxPoint x="-40" y="32" as="offset" />
          </mxGeometry>
        </mxCell>
        <mxCell id="53mp7PGsEGhvLmXxddQn-43" value="1" style="resizable=0;align=right;verticalAlign=bottom;labelBackgroundColor=none;fontSize=12;" connectable="0" vertex="1" parent="53mp7PGsEGhvLmXxddQn-42">
          <mxGeometry x="1" relative="1" as="geometry">
            <mxPoint x="-7" y="4" as="offset" />
          </mxGeometry>
        </mxCell>
      </root>
    </mxGraphModel>
  </diagram>
</mxfile>
